<?xml version="1.0" encoding="UTF-8"?>
<svg viewBox="0 0 531.12885 550.81769" xmlns="http://www.w3.org/2000/svg" xmlns:xlink="http://www.w3.org/1999/xlink">
 <defs>
  <filter id="v">
   <feGaussianBlur stdDeviation=".67573"/>
  </filter>
  <filter id="u">
   <feGaussianBlur stdDeviation=".82612"/>
  </filter>
  <filter id="w">
   <feGaussianBlur stdDeviation="1.01259"/>
  </filter>
  <filter id="x">
   <feGaussianBlur stdDeviation=".70667"/>
  </filter>
  <filter id="r">
   <feGaussianBlur stdDeviation=".55395"/>
  </filter>
  <filter id="p">
   <feGaussianBlur stdDeviation="1.3375"/>
  </filter>
  <filter id="z" x="-.25135" y="-.20258" width="1.5027" height="1.4052">
   <feGaussianBlur stdDeviation="2.99325"/>
  </filter>
  <filter id="s" x="-.13387" y="-.02924" width="1.2678" height="1.0585">
   <feGaussianBlur stdDeviation=".64143"/>
  </filter>
  <filter id="t" x="-.14905" y="-.03059" width="1.2981" height="1.0612">
   <feGaussianBlur stdDeviation=".68623"/>
  </filter>
  <filter id="q" x="-.03147" y="-.10115" width="1.0629" height="1.2023">
   <feGaussianBlur stdDeviation=".79044"/>
  </filter>
  <filter id="y" x="-.11065" y="-.06702" width="1.2213" height="1.134">
   <feGaussianBlur stdDeviation="2.80227"/>
  </filter>
  <filter id="o" x="-.12532" y="-.10588" width="1.2506" height="1.2118">
   <feGaussianBlur stdDeviation="3.87967"/>
  </filter>
  <linearGradient id="m" x1="367.04" x2="348.32" y1="498.48" y2="540.02" gradientUnits="userSpaceOnUse">
   <stop stop-color="#b43000" offset="0"/>
   <stop stop-color="#f60" stop-opacity="0" offset="1"/>
  </linearGradient>
  <linearGradient id="c">
   <stop stop-color="#fff" offset="0"/>
   <stop stop-color="#fff" stop-opacity="0" offset="1"/>
  </linearGradient>
  <linearGradient id="h" x1="369.94" x2="315.55" y1="383.5" y2="451.07" gradientUnits="userSpaceOnUse">
   <stop stop-color="#ff0" offset="0"/>
   <stop stop-color="#ff0" stop-opacity="0" offset="1"/>
  </linearGradient>
  <linearGradient id="b">
   <stop stop-color="#500" offset="0"/>
   <stop stop-color="#500" stop-opacity="0" offset="1"/>
  </linearGradient>
  <linearGradient id="a">
   <stop stop-color="#800000" offset="0"/>
   <stop stop-color="#800000" stop-opacity="0" offset="1"/>
  </linearGradient>
  <linearGradient id="k" x1="475.03" x2="417.16" y1="364.74" y2="466.5" gradientUnits="userSpaceOnUse">
   <stop stop-color="#93461d" offset="0"/>
   <stop stop-color="#93461d" stop-opacity="0" offset="1"/>
  </linearGradient>
  <linearGradient id="n" x1="398.2" x2="386" y1="442.5" y2="538.56" gradientUnits="userSpaceOnUse">
   <stop stop-color="#800000" offset="0"/>
   <stop stop-color="#ffb300" offset="1"/>
  </linearGradient>
  <linearGradient id="l" x1="344.65" x2="364.76" y1="552.45" y2="506.58" gradientUnits="userSpaceOnUse" xlink:href="#c"/>
  <linearGradient id="i" x2="0" y1="460.98" y2="487.3" gradientUnits="userSpaceOnUse" xlink:href="#c"/>
  <linearGradient id="g" x1="388.87" x2="339.37" y1="361.34" y2="489.42" gradientUnits="userSpaceOnUse" xlink:href="#b"/>
  <linearGradient id="j" x1="443.81" x2="354.28" y1="343.15" y2="471.99" gradientUnits="userSpaceOnUse" xlink:href="#b"/>
  <linearGradient id="f" x1="396.3" x2="347.68" y1="358.83" y2="404.83" gradientUnits="userSpaceOnUse" xlink:href="#a"/>
  <linearGradient id="e" x2="0" y1="370.32" y2="379.7" gradientUnits="userSpaceOnUse" xlink:href="#a"/>
  <linearGradient id="d" x1="446.44" x2="368.8" y1="374.21" y2="432.41" gradientUnits="userSpaceOnUse" xlink:href="#a"/>
 </defs>
 <g transform="matrix(2.8027 0 0 2.8027 -822.55 -1032.6)">
  <path d="m313.15 471.72s-14.645 24.983-15.507 28.86-6.4612 18.522 2.5845 27.998 28.429 24.553 40.49 27.998 28.429 6.4612 41.352 0.43074 78.359-62.495 78.359-62.495 22.004-19.778 21.143-36.146-9.4764-21.968-9.4764-21.968-0.86149-28.86-29.721-50.828c-3.9578-3.0126-9.9866-9.0836-14.019-10.705-23.836-9.5842-40.439-2.1102-44.993 0.36702-8.4306-0.53796-65.679 20.611-68.919 68.058-1.9243 28.175-1.2922 28.429-1.2922 28.429z" fill="#ffb300" stroke="#520"/>
  <path d="m313.23 473.06s-5.3147 18.934 3.986 25.577 24.466 16.4 37.535 20.262c47.689 10.049 85.909-23.728 112.94-58.794 6.6434-8.9685 4.3182-23.916 4.3182-23.916s8.3664 8.4708 9.3629 20.097c-0.69799 21.988-16.555 34.097-32.033 47.208-1.6037 1.357-55.39 46.961-58.047 47.958s-13.287 9.6329-22.587 9.3007-30.227-2.3252-41.853-10.297-26.573-22.587-27.902-23.584-6.3112-13.951-2.3252-24.248c0.26931-0.69572 0.57956-1.4354 0.92389-2.2098 4.752-10.687 15.994-27.973 15.684-27.353z" fill="url(#m)" filter="url(#v)"/>
  <path d="m349.67 522.31s-2.1537 12.061-5.169 13.353-13.078 10.354-10.769 14.645c2.6792 4.9794 11.63 8.1842 16.799 7.3227s11.29-10.291 8.2746-15.029-3.9671-4.7856-3.5364-10.385 6.7024-7.5122 6.7024-7.5122-8.8562-1.1027-12.302-2.395z" fill="url(#l)" filter="url(#z)"/>
  <path d="m383.32 375.41s-17.232 11.642-42.503 34.199c-24.358 21.742-27.584 69.437-23.266 88.038-4.6503-26.906 0.15371-52.899 1.0035-56.468 3.3217-13.951 11.619-23.93 18.262-31.57s46.836-34.199 46.503-34.199z" fill="url(#h)" filter="url(#u)"/>
  <path d="m359.52 434.65s-8.9299 18.339-10.242 32.479c-0.97605 10.521-0.53857 19.805-0.53857 19.805s-1.617 0.80852 0 0l7.5462-3.7731s-3.7731-34.227 3.2341-48.511z" fill="url(#i)" filter="url(#s)" opacity=".4"/>
  <path d="m422.94 375.5c-9.2148-0.12294-15.862 2.088-18.072 2.6608-7.6398 1.9792-20.21 8.048-38.147 29.464-15.552 18.568-24.574 41.857-24.906 57.469-0.26933 12.659 2.9862 34.541 7.9688 49.156-1.6608-13.951-2.2651-33.564-0.6875-46.156 1.8321-10.138 4.6035-19.629 8.2812-28.594 9e-3 -0.0321 0.0227-0.0617 0.0312-0.0937 1.2775-4.7914 2.9887-9.2792 5.3125-13.188 14.615-24.58 29.163-47.185 67.438-48.156 1.4024 0.16661 2.9126 0.82115 4.375 1.6875 0.55551-0.0752 1.0485-0.18461 1.4062-0.3125-2.4374-2.8762-7.4711-3.8637-13-3.9375z" fill="url(#g)" filter="url(#w)" opacity=".6"/>
  <path d="m442.11 386.03s-24.869-7.8278-44.467 10.774c-13.588 12.897-29.939 36.394-33.593 58.982s-5.6468 51.154-5.6468 51.154-11.702-53.774 4.3182-80.717c14.615-24.58 29.155-47.193 67.43-48.164 5.2154 0.61961 11.958 7.972 11.958 7.972z" fill="url(#j)" filter="url(#x)"/>
  <path transform="matrix(.84861 0 0 1 51.314 6)" d="m350.99 429.98s-8.494 12.74-9.0669 28.585c-0.39439 11.071 1.0497 25.245 1.0497 25.245s-3.4912-18.694-2.9813-28.058c0.76341-14.02 10.999-26.154 10.999-25.772z" fill="#fff" filter="url(#t)" opacity=".8"/>
  <path d="m381.98 376.14-26.659 18.9s-17.507 6.3663-19.696 8.3558 21.486-23.874 46.355-27.256z" fill="url(#f)" filter="url(#r)" opacity=".6"/>
  <path d="m383.93 375.39-18.008 13.686s6.2427-4.682 20.049-3.4815c11.165-8.6437 29.533-11.525 39.617-11.285 5.1314 0.12217-22.57-9.7242-41.658 1.0805z" fill="url(#e)" filter="url(#q)" opacity=".5"/>
  <path transform="matrix(.99157 -.12959 .12959 .99157 -42.029 48.714)" d="m427.38 390.64s-15.847-6.2427-35.535 9.6042-31.694 39.857-31.694 39.857 38.247-32.592 56.664-36.496c17.78-3.769 26.171-5e-3 26.411 1.4406l-15.847-14.406z" fill="url(#d)" filter="url(#p)" opacity=".5"/>
  <path d="m441.64 387.6c6.9006 2.3002 18.018 16.868 21.469 24.536s6.5173 32.586 4.6004 36.037c-7.2562 16.257-16.964 25.853-33.736 33.353-8.0507 2.3002-26.452 7.284-26.452 5.7505s42.937-34.887 37.57-62.106c-3.2089-16.274-11.118-27.603-17.252-27.986-23.181-10.055 6.9054-10.669 13.801-9.5842z" fill="url(#k)" filter="url(#y)"/>
  <path d="m371.7 457.55s19.495 13.43 38.99 9.5309 29.892-16.462 29.892-16.462l1.2997 37.69s-21.228 18.629-29.892 21.661c-17.102 9.5367-24.284 7.5364-38.99 11.264 0 0-11.264-26.86-1.2997-63.684z" fill="url(#n)" filter="url(#o)" opacity=".15"/>
 </g>
</svg>
